# MagicaVoxel @ Ephtracy

# group
g STAGE1-01

# material
mtllib STAGE1-01.mtl
usemtl palette

# normals
vn -1 0 0
vn 1 0 0
vn 0 0 1
vn 0 0 -1
vn 0 -1 0
vn 0 1 0

# texcoords
vt 0.689453 0.5
vt 0.919922 0.5
vt 0.958984 0.5
vt 0.962891 0.5

# verts
v -24.5 0 4
v -24.5 0 3
v -24.5 0 -5
v -24.5 49 4
v -24.5 49 3
v -24.5 49 -5
v -23.5 1 5
v -23.5 1 4
v -23.5 2 5
v -23.5 2 4
v -23.5 25 5
v -23.5 25 4
v -23.5 26 5
v -23.5 26 4
v -23.5 28 5
v -23.5 28 4
v -23.5 48 5
v -23.5 48 4
v 0.5 1 5
v 0.5 1 4
v 0.5 25 5
v 0.5 25 4
v 0.5 26 5
v 0.5 26 4
v 0.5 48 5
v 0.5 48 4
v -0.5 1 5
v -0.5 1 4
v -0.5 25 5
v -0.5 25 4
v -0.5 26 5
v -0.5 26 4
v -0.5 48 5
v -0.5 48 4
v 23.5 1 5
v 23.5 1 4
v 23.5 25 5
v 23.5 25 4
v 23.5 26 5
v 23.5 26 4
v 23.5 27 5
v 23.5 27 4
v 23.5 48 5
v 23.5 48 4
v 24.5 0 4
v 24.5 0 3
v 24.5 0 -5
v 24.5 49 4
v 24.5 49 3
v 24.5 49 -5
v -23.5 1 5
v -23.5 2 5
v -23.5 25 5
v -23.5 26 5
v -23.5 28 5
v -23.5 48 5
v -22.5 1 5
v -22.5 2 5
v -22.5 26 5
v -22.5 28 5
v -13.5 12 5
v -13.5 13 5
v -12.5 12 5
v -12.5 13 5
v -11.5 28 5
v -11.5 30 5
v -9.5 47 5
v -9.5 48 5
v -8.5 28 5
v -8.5 30 5
v -8.5 47 5
v -8.5 48 5
v -6.5 34 5
v -6.5 35 5
v -5.5 34 5
v -5.5 35 5
v -0.5 1 5
v -0.5 25 5
v -0.5 26 5
v -0.5 48 5
v 0.5 1 5
v 0.5 25 5
v 0.5 26 5
v 0.5 48 5
v 12.5 33 5
v 12.5 34 5
v 13.5 33 5
v 13.5 34 5
v 14.5 6 5
v 14.5 7 5
v 15.5 6 5
v 15.5 7 5
v 22.5 26 5
v 22.5 27 5
v 23.5 1 5
v 23.5 25 5
v 23.5 26 5
v 23.5 27 5
v 23.5 48 5
v -24.5 0 4
v -24.5 49 4
v -23.5 1 4
v -23.5 2 4
v -23.5 25 4
v -23.5 26 4
v -23.5 28 4
v -23.5 48 4
v -22.5 1 4
v -22.5 26 4
v -9.5 48 4
v -8.5 48 4
v -0.5 1 4
v -0.5 25 4
v -0.5 26 4
v -0.5 48 4
v 0.5 1 4
v 0.5 25 4
v 0.5 26 4
v 0.5 48 4
v 22.5 26 4
v 23.5 1 4
v 23.5 25 4
v 23.5 26 4
v 23.5 27 4
v 23.5 48 4
v 24.5 0 4
v 24.5 49 4
v -24.5 0 -5
v -24.5 49 -5
v 24.5 0 -5
v 24.5 49 -5
v -24.5 0 4
v 24.5 0 4
v -24.5 0 3
v 24.5 0 3
v -24.5 0 -5
v 24.5 0 -5
v -23.5 1 5
v -22.5 1 5
v -0.5 1 5
v 0.5 1 5
v 23.5 1 5
v -23.5 1 4
v -22.5 1 4
v -0.5 1 4
v 0.5 1 4
v 23.5 1 4
v -23.5 26 5
v -22.5 26 5
v -0.5 26 5
v 0.5 26 5
v 22.5 26 5
v 23.5 26 5
v -23.5 26 4
v -22.5 26 4
v -0.5 26 4
v 0.5 26 4
v 22.5 26 4
v 23.5 26 4
v -23.5 25 5
v -0.5 25 5
v 0.5 25 5
v 23.5 25 5
v -23.5 25 4
v -0.5 25 4
v 0.5 25 4
v 23.5 25 4
v -23.5 48 5
v -9.5 48 5
v -8.5 48 5
v -0.5 48 5
v 0.5 48 5
v 23.5 48 5
v -23.5 48 4
v -9.5 48 4
v -8.5 48 4
v -0.5 48 4
v 0.5 48 4
v 23.5 48 4
v -24.5 49 4
v 24.5 49 4
v -24.5 49 3
v 24.5 49 3
v -24.5 49 -5
v 24.5 49 -5

# faces
f 4/1/1 2/1/1 1/1/1
f 5/3/1 3/3/1 2/3/1
f 5/1/1 2/1/1 4/1/1
f 6/3/1 3/3/1 5/3/1
f 9/2/1 8/2/1 7/2/1
f 10/2/1 8/2/1 9/2/1
f 11/3/1 10/3/1 9/3/1
f 12/3/1 10/3/1 11/3/1
f 15/2/1 14/2/1 13/2/1
f 16/2/1 14/2/1 15/2/1
f 17/3/1 16/3/1 15/3/1
f 18/3/1 16/3/1 17/3/1
f 21/3/1 20/3/1 19/3/1
f 22/3/1 20/3/1 21/3/1
f 25/3/1 24/3/1 23/3/1
f 26/3/1 24/3/1 25/3/1
f 27/3/2 28/3/2 29/3/2
f 29/3/2 28/3/2 30/3/2
f 31/3/2 32/3/2 33/3/2
f 33/3/2 32/3/2 34/3/2
f 35/3/2 36/3/2 37/3/2
f 37/3/2 36/3/2 38/3/2
f 39/2/2 40/2/2 41/2/2
f 41/2/2 40/2/2 42/2/2
f 41/3/2 42/3/2 43/3/2
f 43/3/2 42/3/2 44/3/2
f 45/1/2 46/1/2 48/1/2
f 46/3/2 47/3/2 49/3/2
f 48/1/2 46/1/2 49/1/2
f 49/3/2 47/3/2 50/3/2
f 57/2/3 52/2/3 51/2/3
f 58/3/3 53/3/3 52/3/3
f 58/2/3 52/2/3 57/2/3
f 59/2/3 55/2/3 54/2/3
f 60/3/3 56/3/3 55/3/3
f 60/2/3 55/2/3 59/2/3
f 61/3/3 53/3/3 58/3/3
f 61/3/3 58/3/3 57/3/3
f 62/3/3 53/3/3 61/3/3
f 63/3/3 61/3/3 57/3/3
f 63/4/3 62/4/3 61/4/3
f 64/3/3 53/3/3 62/3/3
f 64/4/3 62/4/3 63/4/3
f 65/3/3 56/3/3 60/3/3
f 65/3/3 60/3/3 59/3/3
f 66/3/3 56/3/3 65/3/3
f 67/3/3 56/3/3 66/3/3
f 68/3/3 56/3/3 67/3/3
f 69/3/3 65/3/3 59/3/3
f 69/4/3 66/4/3 65/4/3
f 70/3/3 67/3/3 66/3/3
f 70/4/3 66/4/3 69/4/3
f 71/2/3 68/2/3 67/2/3
f 71/3/3 67/3/3 70/3/3
f 72/2/3 68/2/3 71/2/3
f 73/3/3 70/3/3 69/3/3
f 73/3/3 71/3/3 70/3/3
f 73/3/3 72/3/3 71/3/3
f 74/3/3 72/3/3 73/3/3
f 75/3/3 73/3/3 69/3/3
f 75/4/3 74/4/3 73/4/3
f 76/3/3 72/3/3 74/3/3
f 76/4/3 74/4/3 75/4/3
f 77/3/3 64/3/3 63/3/3
f 77/3/3 63/3/3 57/3/3
f 78/3/3 53/3/3 64/3/3
f 78/3/3 64/3/3 77/3/3
f 79/3/3 76/3/3 75/3/3
f 79/3/3 69/3/3 59/3/3
f 79/3/3 75/3/3 69/3/3
f 80/3/3 72/3/3 76/3/3
f 80/3/3 76/3/3 79/3/3
f 85/3/3 84/3/3 83/3/3
f 86/3/3 84/3/3 85/3/3
f 87/3/3 85/3/3 83/3/3
f 87/4/3 86/4/3 85/4/3
f 88/3/3 84/3/3 86/3/3
f 88/4/3 86/4/3 87/4/3
f 89/3/3 82/3/3 81/3/3
f 90/3/3 82/3/3 89/3/3
f 91/3/3 89/3/3 81/3/3
f 91/4/3 90/4/3 89/4/3
f 92/3/3 82/3/3 90/3/3
f 92/4/3 90/4/3 91/4/3
f 93/3/3 87/3/3 83/3/3
f 93/3/3 88/3/3 87/3/3
f 94/3/3 88/3/3 93/3/3
f 95/3/3 92/3/3 91/3/3
f 95/3/3 91/3/3 81/3/3
f 96/3/3 82/3/3 92/3/3
f 96/3/3 92/3/3 95/3/3
f 97/2/3 94/2/3 93/2/3
f 98/3/3 88/3/3 94/3/3
f 98/2/3 94/2/3 97/2/3
f 99/3/3 84/3/3 88/3/3
f 99/3/3 88/3/3 98/3/3
f 102/1/3 101/1/3 100/1/3
f 103/1/3 101/1/3 102/1/3
f 104/1/3 101/1/3 103/1/3
f 105/1/3 101/1/3 104/1/3
f 106/1/3 101/1/3 105/1/3
f 107/1/3 101/1/3 106/1/3
f 108/1/3 102/1/3 100/1/3
f 109/1/3 105/1/3 104/1/3
f 110/1/3 101/1/3 107/1/3
f 111/1/3 101/1/3 110/1/3
f 112/1/3 108/1/3 100/1/3
f 113/1/3 109/1/3 104/1/3
f 114/1/3 109/1/3 113/1/3
f 115/1/3 101/1/3 111/1/3
f 116/1/3 112/1/3 100/1/3
f 116/1/3 115/1/3 114/1/3
f 116/1/3 114/1/3 113/1/3
f 116/1/3 113/1/3 112/1/3
f 117/1/3 115/1/3 116/1/3
f 118/1/3 115/1/3 117/1/3
f 119/1/3 101/1/3 115/1/3
f 119/1/3 115/1/3 118/1/3
f 120/1/3 118/1/3 117/1/3
f 121/1/3 116/1/3 100/1/3
f 122/1/3 120/1/3 117/1/3
f 123/1/3 120/1/3 122/1/3
f 125/1/3 101/1/3 119/1/3
f 126/1/3 124/1/3 123/1/3
f 126/1/3 125/1/3 124/1/3
f 126/1/3 123/1/3 122/1/3
f 126/1/3 121/1/3 100/1/3
f 126/1/3 122/1/3 121/1/3
f 127/1/3 101/1/3 125/1/3
f 127/1/3 125/1/3 126/1/3
f 128/3/4 129/3/4 130/3/4
f 130/3/4 129/3/4 131/3/4
f 134/1/5 133/1/5 132/1/5
f 135/1/5 133/1/5 134/1/5
f 136/3/5 135/3/5 134/3/5
f 137/3/5 135/3/5 136/3/5
f 143/2/5 139/2/5 138/2/5
f 144/3/5 140/3/5 139/3/5
f 144/2/5 139/2/5 143/2/5
f 145/3/5 140/3/5 144/3/5
f 146/3/5 142/3/5 141/3/5
f 147/3/5 142/3/5 146/3/5
f 154/2/5 149/2/5 148/2/5
f 155/3/5 150/3/5 149/3/5
f 155/2/5 149/2/5 154/2/5
f 156/3/5 150/3/5 155/3/5
f 157/3/5 152/3/5 151/3/5
f 158/2/5 153/2/5 152/2/5
f 158/3/5 152/3/5 157/3/5
f 159/2/5 153/2/5 158/2/5
f 160/3/6 161/3/6 164/3/6
f 164/3/6 161/3/6 165/3/6
f 162/3/6 163/3/6 166/3/6
f 166/3/6 163/3/6 167/3/6
f 168/3/6 169/3/6 174/3/6
f 169/2/6 170/2/6 175/2/6
f 174/3/6 169/3/6 175/3/6
f 170/3/6 171/3/6 176/3/6
f 175/2/6 170/2/6 176/2/6
f 176/3/6 171/3/6 177/3/6
f 172/3/6 173/3/6 178/3/6
f 178/3/6 173/3/6 179/3/6
f 180/1/6 181/1/6 182/1/6
f 182/1/6 181/1/6 183/1/6
f 182/3/6 183/3/6 184/3/6
f 184/3/6 183/3/6 185/3/6
