# MagicaVoxel @ Ephtracy

# group
g STAGE1-03

# material
mtllib STAGE1-03.mtl
usemtl palette

# normals
vn -1 0 0
vn 1 0 0
vn 0 0 1
vn 0 0 -1
vn 0 -1 0
vn 0 1 0

# texcoords
vt 0.681641 0.5
vt 0.689453 0.5
vt 0.958984 0.5
vt 0.966797 0.5

# verts
v -24.5 0 24.5
v -24.5 0 -24.5
v -24.5 8 24.5
v -24.5 8 -22.5
v -24.5 8 -23.5
v -24.5 8 -24.5
v -24.5 9 24.5
v -24.5 9 -22.5
v -24.5 9 -23.5
v -24.5 9 -24.5
v -23.5 9 23.5
v -23.5 9 12.5
v -23.5 9 11.5
v -23.5 9 0.5
v -23.5 9 -0.5
v -23.5 9 -11.5
v -23.5 9 -12.5
v -23.5 9 -22.5
v -23.5 9 -23.5
v -23.5 10 23.5
v -23.5 10 12.5
v -23.5 10 11.5
v -23.5 10 0.5
v -23.5 10 -0.5
v -23.5 10 -11.5
v -23.5 10 -12.5
v -23.5 10 -23.5
v -11.5 9 23.5
v -11.5 9 12.5
v -11.5 9 11.5
v -11.5 9 0.5
v -11.5 9 -0.5
v -11.5 9 -11.5
v -11.5 9 -12.5
v -11.5 9 -23.5
v -11.5 10 23.5
v -11.5 10 12.5
v -11.5 10 11.5
v -11.5 10 0.5
v -11.5 10 -0.5
v -11.5 10 -11.5
v -11.5 10 -12.5
v -11.5 10 -23.5
v 0.5 9 23.5
v 0.5 9 12.5
v 0.5 9 11.5
v 0.5 9 0.5
v 0.5 9 -0.5
v 0.5 9 -11.5
v 0.5 9 -12.5
v 0.5 9 -23.5
v 0.5 10 23.5
v 0.5 10 12.5
v 0.5 10 11.5
v 0.5 10 0.5
v 0.5 10 -0.5
v 0.5 10 -11.5
v 0.5 10 -12.5
v 0.5 10 -23.5
v 12.5 9 23.5
v 12.5 9 12.5
v 12.5 9 11.5
v 12.5 9 0.5
v 12.5 9 -0.5
v 12.5 9 -11.5
v 12.5 9 -12.5
v 12.5 9 -23.5
v 12.5 10 23.5
v 12.5 10 12.5
v 12.5 10 11.5
v 12.5 10 0.5
v 12.5 10 -0.5
v 12.5 10 -11.5
v 12.5 10 -12.5
v 12.5 10 -23.5
v -12.5 9 23.5
v -12.5 9 12.5
v -12.5 9 11.5
v -12.5 9 0.5
v -12.5 9 -0.5
v -12.5 9 -11.5
v -12.5 9 -12.5
v -12.5 9 -23.5
v -12.5 10 23.5
v -12.5 10 12.5
v -12.5 10 11.5
v -12.5 10 0.5
v -12.5 10 -0.5
v -12.5 10 -11.5
v -12.5 10 -12.5
v -12.5 10 -23.5
v -0.5 9 23.5
v -0.5 9 12.5
v -0.5 9 11.5
v -0.5 9 0.5
v -0.5 9 -0.5
v -0.5 9 -11.5
v -0.5 9 -12.5
v -0.5 9 -23.5
v -0.5 10 23.5
v -0.5 10 12.5
v -0.5 10 11.5
v -0.5 10 0.5
v -0.5 10 -0.5
v -0.5 10 -11.5
v -0.5 10 -12.5
v -0.5 10 -23.5
v 11.5 9 23.5
v 11.5 9 12.5
v 11.5 9 11.5
v 11.5 9 0.5
v 11.5 9 -0.5
v 11.5 9 -11.5
v 11.5 9 -12.5
v 11.5 9 -23.5
v 11.5 10 23.5
v 11.5 10 12.5
v 11.5 10 11.5
v 11.5 10 0.5
v 11.5 10 -0.5
v 11.5 10 -11.5
v 11.5 10 -12.5
v 11.5 10 -23.5
v 23.5 9 23.5
v 23.5 9 12.5
v 23.5 9 11.5
v 23.5 9 0.5
v 23.5 9 -0.5
v 23.5 9 -11.5
v 23.5 9 -12.5
v 23.5 9 -23.5
v 23.5 10 23.5
v 23.5 10 12.5
v 23.5 10 11.5
v 23.5 10 0.5
v 23.5 10 -0.5
v 23.5 10 -11.5
v 23.5 10 -12.5
v 23.5 10 -23.5
v 24.5 0 24.5
v 24.5 0 -24.5
v 24.5 8 24.5
v 24.5 8 -23.5
v 24.5 8 -24.5
v 24.5 9 24.5
v 24.5 9 -23.5
v 24.5 9 -24.5
v -24.5 0 24.5
v -24.5 8 24.5
v -24.5 9 24.5
v 24.5 0 24.5
v 24.5 8 24.5
v 24.5 9 24.5
v -23.5 9 23.5
v -23.5 10 23.5
v -12.5 9 23.5
v -12.5 10 23.5
v -11.5 9 23.5
v -11.5 10 23.5
v -0.5 9 23.5
v -0.5 10 23.5
v 0.5 9 23.5
v 0.5 10 23.5
v 11.5 9 23.5
v 11.5 10 23.5
v 12.5 9 23.5
v 12.5 10 23.5
v 23.5 9 23.5
v 23.5 10 23.5
v -23.5 9 11.5
v -23.5 10 11.5
v -12.5 9 11.5
v -12.5 10 11.5
v -11.5 9 11.5
v -11.5 10 11.5
v -0.5 9 11.5
v -0.5 10 11.5
v 0.5 9 11.5
v 0.5 10 11.5
v 11.5 9 11.5
v 11.5 10 11.5
v 12.5 9 11.5
v 12.5 10 11.5
v 23.5 9 11.5
v 23.5 10 11.5
v -23.5 9 -0.5
v -23.5 10 -0.5
v -12.5 9 -0.5
v -12.5 10 -0.5
v -11.5 9 -0.5
v -11.5 10 -0.5
v -0.5 9 -0.5
v -0.5 10 -0.5
v 0.5 9 -0.5
v 0.5 10 -0.5
v 11.5 9 -0.5
v 11.5 10 -0.5
v 12.5 9 -0.5
v 12.5 10 -0.5
v 23.5 9 -0.5
v 23.5 10 -0.5
v -23.5 9 -12.5
v -23.5 10 -12.5
v -12.5 9 -12.5
v -12.5 10 -12.5
v -11.5 9 -12.5
v -11.5 10 -12.5
v -0.5 9 -12.5
v -0.5 10 -12.5
v 0.5 9 -12.5
v 0.5 10 -12.5
v 1.5 9 -12.5
v 1.5 10 -12.5
v 3.5 9 -12.5
v 3.5 10 -12.5
v 11.5 9 -12.5
v 11.5 10 -12.5
v 12.5 9 -12.5
v 12.5 10 -12.5
v 23.5 9 -12.5
v 23.5 10 -12.5
v -23.5 9 12.5
v -23.5 10 12.5
v -12.5 9 12.5
v -12.5 10 12.5
v -11.5 9 12.5
v -11.5 10 12.5
v -0.5 9 12.5
v -0.5 10 12.5
v 0.5 9 12.5
v 0.5 10 12.5
v 11.5 9 12.5
v 11.5 10 12.5
v 12.5 9 12.5
v 12.5 10 12.5
v 23.5 9 12.5
v 23.5 10 12.5
v -23.5 9 0.5
v -23.5 10 0.5
v -12.5 9 0.5
v -12.5 10 0.5
v -11.5 9 0.5
v -11.5 10 0.5
v -0.5 9 0.5
v -0.5 10 0.5
v 0.5 9 0.5
v 0.5 10 0.5
v 11.5 9 0.5
v 11.5 10 0.5
v 12.5 9 0.5
v 12.5 10 0.5
v 23.5 9 0.5
v 23.5 10 0.5
v -23.5 9 -11.5
v -23.5 10 -11.5
v -12.5 9 -11.5
v -12.5 10 -11.5
v -11.5 9 -11.5
v -11.5 10 -11.5
v -0.5 9 -11.5
v -0.5 10 -11.5
v 0.5 9 -11.5
v 0.5 10 -11.5
v 11.5 9 -11.5
v 11.5 10 -11.5
v 12.5 9 -11.5
v 12.5 10 -11.5
v 23.5 9 -11.5
v 23.5 10 -11.5
v -23.5 9 -23.5
v -23.5 10 -23.5
v -12.5 9 -23.5
v -12.5 10 -23.5
v -11.5 9 -23.5
v -11.5 10 -23.5
v -0.5 9 -23.5
v -0.5 10 -23.5
v 0.5 9 -23.5
v 0.5 10 -23.5
v 11.5 9 -23.5
v 11.5 10 -23.5
v 12.5 9 -23.5
v 12.5 10 -23.5
v 23.5 9 -23.5
v 23.5 10 -23.5
v -24.5 0 -24.5
v -24.5 8 -24.5
v -24.5 9 -24.5
v 11.5 8 -24.5
v 11.5 9 -24.5
v 12.5 8 -24.5
v 12.5 9 -24.5
v 23.5 8 -24.5
v 23.5 9 -24.5
v 24.5 0 -24.5
v 24.5 8 -24.5
v 24.5 9 -24.5
v -24.5 0 24.5
v 24.5 0 24.5
v -24.5 0 -24.5
v 24.5 0 -24.5
v -24.5 9 24.5
v 24.5 9 24.5
v -23.5 9 23.5
v -12.5 9 23.5
v -11.5 9 23.5
v -0.5 9 23.5
v 0.5 9 23.5
v 11.5 9 23.5
v 12.5 9 23.5
v 23.5 9 23.5
v -23.5 9 12.5
v -12.5 9 12.5
v -11.5 9 12.5
v -0.5 9 12.5
v 0.5 9 12.5
v 11.5 9 12.5
v 12.5 9 12.5
v 23.5 9 12.5
v -23.5 9 11.5
v -12.5 9 11.5
v -11.5 9 11.5
v -0.5 9 11.5
v 0.5 9 11.5
v 11.5 9 11.5
v 12.5 9 11.5
v 23.5 9 11.5
v -23.5 9 0.5
v -12.5 9 0.5
v -11.5 9 0.5
v -0.5 9 0.5
v 0.5 9 0.5
v 11.5 9 0.5
v 12.5 9 0.5
v 23.5 9 0.5
v -23.5 9 -0.5
v -12.5 9 -0.5
v -11.5 9 -0.5
v -0.5 9 -0.5
v 0.5 9 -0.5
v 11.5 9 -0.5
v 12.5 9 -0.5
v 23.5 9 -0.5
v -23.5 9 -11.5
v -12.5 9 -11.5
v -11.5 9 -11.5
v -0.5 9 -11.5
v 0.5 9 -11.5
v 11.5 9 -11.5
v 12.5 9 -11.5
v 23.5 9 -11.5
v -23.5 9 -12.5
v -12.5 9 -12.5
v -11.5 9 -12.5
v -0.5 9 -12.5
v 0.5 9 -12.5
v 1.5 9 -12.5
v 3.5 9 -12.5
v 11.5 9 -12.5
v 12.5 9 -12.5
v 23.5 9 -12.5
v -24.5 9 -22.5
v -23.5 9 -22.5
v -24.5 9 -23.5
v -23.5 9 -23.5
v -12.5 9 -23.5
v -11.5 9 -23.5
v -0.5 9 -23.5
v 0.5 9 -23.5
v 11.5 9 -23.5
v 12.5 9 -23.5
v 23.5 9 -23.5
v 24.5 9 -23.5
v -24.5 9 -24.5
v 11.5 9 -24.5
v 12.5 9 -24.5
v 23.5 9 -24.5
v 24.5 9 -24.5
v -23.5 10 23.5
v -12.5 10 23.5
v -11.5 10 23.5
v -0.5 10 23.5
v 0.5 10 23.5
v 11.5 10 23.5
v 12.5 10 23.5
v 23.5 10 23.5
v -19.5 10 22.5
v -18.5 10 22.5
v 16.5 10 22.5
v 17.5 10 22.5
v -19.5 10 21.5
v -18.5 10 21.5
v 16.5 10 21.5
v 17.5 10 21.5
v -8.5 10 19.5
v -7.5 10 19.5
v -8.5 10 18.5
v -7.5 10 18.5
v -23.5 10 12.5
v -12.5 10 12.5
v -11.5 10 12.5
v -0.5 10 12.5
v 0.5 10 12.5
v 11.5 10 12.5
v 12.5 10 12.5
v 23.5 10 12.5
v -23.5 10 11.5
v -12.5 10 11.5
v -11.5 10 11.5
v -0.5 10 11.5
v 0.5 10 11.5
v 11.5 10 11.5
v 12.5 10 11.5
v 23.5 10 11.5
v -19.5 10 10.5
v -17.5 10 10.5
v -19.5 10 9.5
v -17.5 10 9.5
v -17.5 10 6.5
v -16.5 10 6.5
v 9.5 10 6.5
v 10.5 10 6.5
v -17.5 10 5.5
v -16.5 10 5.5
v 9.5 10 5.5
v 10.5 10 5.5
v -4.5 10 4.5
v -1.5 10 4.5
v -4.5 10 2.5
v -1.5 10 2.5
v -23.5 10 0.5
v -12.5 10 0.5
v -11.5 10 0.5
v -0.5 10 0.5
v 0.5 10 0.5
v 11.5 10 0.5
v 12.5 10 0.5
v 23.5 10 0.5
v -23.5 10 -0.5
v -12.5 10 -0.5
v -11.5 10 -0.5
v -0.5 10 -0.5
v 0.5 10 -0.5
v 11.5 10 -0.5
v 12.5 10 -0.5
v 23.5 10 -0.5
v -3.5 10 -5.5
v -2.5 10 -5.5
v -16.5 10 -6.5
v -15.5 10 -6.5
v -3.5 10 -6.5
v -2.5 10 -6.5
v 17.5 10 -6.5
v 18.5 10 -6.5
v -16.5 10 -7.5
v -15.5 10 -7.5
v 17.5 10 -7.5
v 18.5 10 -7.5
v -23.5 10 -11.5
v -12.5 10 -11.5
v -11.5 10 -11.5
v -0.5 10 -11.5
v 0.5 10 -11.5
v 11.5 10 -11.5
v 12.5 10 -11.5
v 23.5 10 -11.5
v -23.5 10 -12.5
v -12.5 10 -12.5
v -11.5 10 -12.5
v -0.5 10 -12.5
v 0.5 10 -12.5
v 1.5 10 -12.5
v 3.5 10 -12.5
v 11.5 10 -12.5
v 12.5 10 -12.5
v 23.5 10 -12.5
v 1.5 10 -14.5
v 3.5 10 -14.5
v 4.5 10 -16.5
v 5.5 10 -16.5
v 18.5 10 -16.5
v 19.5 10 -16.5
v 4.5 10 -17.5
v 5.5 10 -17.5
v 18.5 10 -17.5
v 19.5 10 -17.5
v -23.5 10 -23.5
v -12.5 10 -23.5
v -11.5 10 -23.5
v -0.5 10 -23.5
v 0.5 10 -23.5
v 11.5 10 -23.5
v 12.5 10 -23.5
v 23.5 10 -23.5

# faces
f 3/3/1 2/3/1 1/3/1
f 4/3/1 2/3/1 3/3/1
f 5/3/1 2/3/1 4/3/1
f 6/3/1 2/3/1 5/3/1
f 7/2/1 4/2/1 3/2/1
f 8/1/1 5/1/1 4/1/1
f 8/2/1 4/2/1 7/2/1
f 9/2/1 6/2/1 5/2/1
f 9/1/1 5/1/1 8/1/1
f 10/2/1 6/2/1 9/2/1
f 20/3/1 12/3/1 11/3/1
f 21/3/1 12/3/1 20/3/1
f 22/3/1 14/3/1 13/3/1
f 23/3/1 14/3/1 22/3/1
f 24/3/1 16/3/1 15/3/1
f 25/3/1 16/3/1 24/3/1
f 26/3/1 19/3/1 18/3/1
f 26/3/1 18/3/1 17/3/1
f 27/3/1 19/3/1 26/3/1
f 36/3/1 29/3/1 28/3/1
f 37/3/1 29/3/1 36/3/1
f 38/3/1 31/3/1 30/3/1
f 39/3/1 31/3/1 38/3/1
f 40/3/1 33/3/1 32/3/1
f 41/3/1 33/3/1 40/3/1
f 42/3/1 35/3/1 34/3/1
f 43/3/1 35/3/1 42/3/1
f 52/3/1 45/3/1 44/3/1
f 53/3/1 45/3/1 52/3/1
f 54/3/1 47/3/1 46/3/1
f 55/3/1 47/3/1 54/3/1
f 56/3/1 49/3/1 48/3/1
f 57/3/1 49/3/1 56/3/1
f 58/3/1 51/3/1 50/3/1
f 59/3/1 51/3/1 58/3/1
f 68/3/1 61/3/1 60/3/1
f 69/3/1 61/3/1 68/3/1
f 70/3/1 63/3/1 62/3/1
f 71/3/1 63/3/1 70/3/1
f 72/3/1 65/3/1 64/3/1
f 73/3/1 65/3/1 72/3/1
f 74/3/1 67/3/1 66/3/1
f 75/3/1 67/3/1 74/3/1
f 76/3/2 77/3/2 84/3/2
f 84/3/2 77/3/2 85/3/2
f 78/3/2 79/3/2 86/3/2
f 86/3/2 79/3/2 87/3/2
f 80/3/2 81/3/2 88/3/2
f 88/3/2 81/3/2 89/3/2
f 82/3/2 83/3/2 90/3/2
f 90/3/2 83/3/2 91/3/2
f 92/3/2 93/3/2 100/3/2
f 100/3/2 93/3/2 101/3/2
f 94/3/2 95/3/2 102/3/2
f 102/3/2 95/3/2 103/3/2
f 96/3/2 97/3/2 104/3/2
f 104/3/2 97/3/2 105/3/2
f 98/3/2 99/3/2 106/3/2
f 106/3/2 99/3/2 107/3/2
f 108/3/2 109/3/2 116/3/2
f 116/3/2 109/3/2 117/3/2
f 110/3/2 111/3/2 118/3/2
f 118/3/2 111/3/2 119/3/2
f 112/3/2 113/3/2 120/3/2
f 120/3/2 113/3/2 121/3/2
f 114/3/2 115/3/2 122/3/2
f 122/3/2 115/3/2 123/3/2
f 124/3/2 125/3/2 132/3/2
f 132/3/2 125/3/2 133/3/2
f 126/3/2 127/3/2 134/3/2
f 134/3/2 127/3/2 135/3/2
f 128/3/2 129/3/2 136/3/2
f 136/3/2 129/3/2 137/3/2
f 130/3/2 131/3/2 138/3/2
f 138/3/2 131/3/2 139/3/2
f 140/3/2 141/3/2 142/3/2
f 142/3/2 141/3/2 143/3/2
f 143/3/2 141/3/2 144/3/2
f 142/2/2 143/2/2 145/2/2
f 143/1/2 144/1/2 146/1/2
f 145/2/2 143/2/2 146/2/2
f 146/1/2 144/1/2 147/1/2
f 151/3/3 149/3/3 148/3/3
f 152/2/3 150/2/3 149/2/3
f 152/3/3 149/3/3 151/3/3
f 153/2/3 150/2/3 152/2/3
f 156/3/3 155/3/3 154/3/3
f 157/3/3 155/3/3 156/3/3
f 160/3/3 159/3/3 158/3/3
f 161/3/3 159/3/3 160/3/3
f 164/3/3 163/3/3 162/3/3
f 165/3/3 163/3/3 164/3/3
f 168/3/3 167/3/3 166/3/3
f 169/3/3 167/3/3 168/3/3
f 172/3/3 171/3/3 170/3/3
f 173/3/3 171/3/3 172/3/3
f 176/3/3 175/3/3 174/3/3
f 177/3/3 175/3/3 176/3/3
f 180/3/3 179/3/3 178/3/3
f 181/3/3 179/3/3 180/3/3
f 184/3/3 183/3/3 182/3/3
f 185/3/3 183/3/3 184/3/3
f 188/3/3 187/3/3 186/3/3
f 189/3/3 187/3/3 188/3/3
f 192/3/3 191/3/3 190/3/3
f 193/3/3 191/3/3 192/3/3
f 196/3/3 195/3/3 194/3/3
f 197/3/3 195/3/3 196/3/3
f 200/3/3 199/3/3 198/3/3
f 201/3/3 199/3/3 200/3/3
f 204/3/3 203/3/3 202/3/3
f 205/3/3 203/3/3 204/3/3
f 208/3/3 207/3/3 206/3/3
f 209/3/3 207/3/3 208/3/3
f 212/3/3 211/3/3 210/3/3
f 213/3/3 211/3/3 212/3/3
f 214/4/3 213/4/3 212/4/3
f 215/4/3 213/4/3 214/4/3
f 216/3/3 215/3/3 214/3/3
f 217/3/3 215/3/3 216/3/3
f 220/3/3 219/3/3 218/3/3
f 221/3/3 219/3/3 220/3/3
f 222/3/4 223/3/4 224/3/4
f 224/3/4 223/3/4 225/3/4
f 226/3/4 227/3/4 228/3/4
f 228/3/4 227/3/4 229/3/4
f 230/3/4 231/3/4 232/3/4
f 232/3/4 231/3/4 233/3/4
f 234/3/4 235/3/4 236/3/4
f 236/3/4 235/3/4 237/3/4
f 238/3/4 239/3/4 240/3/4
f 240/3/4 239/3/4 241/3/4
f 242/3/4 243/3/4 244/3/4
f 244/3/4 243/3/4 245/3/4
f 246/3/4 247/3/4 248/3/4
f 248/3/4 247/3/4 249/3/4
f 250/3/4 251/3/4 252/3/4
f 252/3/4 251/3/4 253/3/4
f 254/3/4 255/3/4 256/3/4
f 256/3/4 255/3/4 257/3/4
f 258/3/4 259/3/4 260/3/4
f 260/3/4 259/3/4 261/3/4
f 262/3/4 263/3/4 264/3/4
f 264/3/4 263/3/4 265/3/4
f 266/3/4 267/3/4 268/3/4
f 268/3/4 267/3/4 269/3/4
f 270/3/4 271/3/4 272/3/4
f 272/3/4 271/3/4 273/3/4
f 274/3/4 275/3/4 276/3/4
f 276/3/4 275/3/4 277/3/4
f 278/3/4 279/3/4 280/3/4
f 280/3/4 279/3/4 281/3/4
f 282/3/4 283/3/4 284/3/4
f 284/3/4 283/3/4 285/3/4
f 286/3/4 287/3/4 289/3/4
f 287/2/4 288/2/4 289/2/4
f 289/2/4 288/2/4 290/2/4
f 286/3/4 289/3/4 291/3/4
f 289/1/4 290/1/4 291/1/4
f 291/1/4 290/1/4 292/1/4
f 286/3/4 291/3/4 293/3/4
f 291/2/4 292/2/4 293/2/4
f 293/2/4 292/2/4 294/2/4
f 286/3/4 293/3/4 295/3/4
f 293/1/4 294/1/4 296/1/4
f 295/3/4 293/3/4 296/3/4
f 296/1/4 294/1/4 297/1/4
f 300/3/5 299/3/5 298/3/5
f 301/3/5 299/3/5 300/3/5
f 302/2/6 303/2/6 304/2/6
f 304/2/6 303/2/6 305/2/6
f 305/2/6 303/2/6 306/2/6
f 306/2/6 303/2/6 307/2/6
f 307/2/6 303/2/6 308/2/6
f 308/2/6 303/2/6 309/2/6
f 309/2/6 303/2/6 310/2/6
f 310/2/6 303/2/6 311/2/6
f 302/2/6 304/2/6 312/2/6
f 305/2/6 306/2/6 313/2/6
f 313/2/6 306/2/6 314/2/6
f 307/2/6 308/2/6 315/2/6
f 315/2/6 308/2/6 316/2/6
f 309/2/6 310/2/6 317/2/6
f 317/2/6 310/2/6 318/2/6
f 311/2/6 303/2/6 319/2/6
f 302/2/6 312/2/6 320/2/6
f 312/2/6 313/2/6 320/2/6
f 313/1/6 314/1/6 321/1/6
f 320/2/6 313/2/6 321/2/6
f 314/2/6 315/2/6 322/2/6
f 321/1/6 314/1/6 322/1/6
f 315/1/6 316/1/6 323/1/6
f 322/2/6 315/2/6 323/2/6
f 316/2/6 317/2/6 324/2/6
f 323/1/6 316/1/6 324/1/6
f 317/1/6 318/1/6 325/1/6
f 324/2/6 317/2/6 325/2/6
f 318/2/6 319/2/6 326/2/6
f 325/1/6 318/1/6 326/1/6
f 319/2/6 303/2/6 327/2/6
f 326/2/6 319/2/6 327/2/6
f 302/2/6 320/2/6 328/2/6
f 321/2/6 322/2/6 329/2/6
f 329/2/6 322/2/6 330/2/6
f 323/2/6 324/2/6 331/2/6
f 331/2/6 324/2/6 332/2/6
f 325/2/6 326/2/6 333/2/6
f 333/2/6 326/2/6 334/2/6
f 327/2/6 303/2/6 335/2/6
f 302/2/6 328/2/6 336/2/6
f 328/2/6 329/2/6 336/2/6
f 329/1/6 330/1/6 337/1/6
f 336/2/6 329/2/6 337/2/6
f 330/2/6 331/2/6 338/2/6
f 337/1/6 330/1/6 338/1/6
f 331/1/6 332/1/6 339/1/6
f 338/2/6 331/2/6 339/2/6
f 332/2/6 333/2/6 340/2/6
f 339/1/6 332/1/6 340/1/6
f 333/1/6 334/1/6 341/1/6
f 340/2/6 333/2/6 341/2/6
f 334/2/6 335/2/6 342/2/6
f 341/1/6 334/1/6 342/1/6
f 335/2/6 303/2/6 343/2/6
f 342/2/6 335/2/6 343/2/6
f 302/2/6 336/2/6 344/2/6
f 337/2/6 338/2/6 345/2/6
f 345/2/6 338/2/6 346/2/6
f 339/2/6 340/2/6 347/2/6
f 347/2/6 340/2/6 348/2/6
f 341/2/6 342/2/6 349/2/6
f 349/2/6 342/2/6 350/2/6
f 343/2/6 303/2/6 351/2/6
f 302/2/6 344/2/6 352/2/6
f 344/2/6 345/2/6 352/2/6
f 345/1/6 346/1/6 353/1/6
f 352/2/6 345/2/6 353/2/6
f 347/2/6 348/2/6 354/2/6
f 353/1/6 346/1/6 354/1/6
f 346/2/6 347/2/6 354/2/6
f 348/2/6 349/2/6 354/2/6
f 354/2/6 349/2/6 355/2/6
f 355/2/6 349/2/6 356/2/6
f 356/2/6 349/2/6 357/2/6
f 357/2/6 349/2/6 358/2/6
f 349/1/6 350/1/6 359/1/6
f 358/2/6 349/2/6 359/2/6
f 350/2/6 351/2/6 360/2/6
f 359/1/6 350/1/6 360/1/6
f 351/2/6 303/2/6 361/2/6
f 360/2/6 351/2/6 361/2/6
f 302/2/6 352/2/6 362/2/6
f 362/2/6 352/2/6 363/2/6
f 362/1/6 363/1/6 364/1/6
f 364/1/6 363/1/6 365/1/6
f 353/2/6 354/2/6 366/2/6
f 366/2/6 354/2/6 367/2/6
f 355/2/6 356/2/6 368/2/6
f 368/2/6 356/2/6 369/2/6
f 359/2/6 360/2/6 370/2/6
f 370/2/6 360/2/6 371/2/6
f 361/2/6 303/2/6 372/2/6
f 372/2/6 303/2/6 373/2/6
f 366/2/6 367/2/6 374/2/6
f 364/2/6 365/2/6 374/2/6
f 368/2/6 369/2/6 374/2/6
f 365/2/6 366/2/6 374/2/6
f 367/2/6 368/2/6 374/2/6
f 369/2/6 370/2/6 374/2/6
f 370/1/6 371/1/6 375/1/6
f 374/2/6 370/2/6 375/2/6
f 371/2/6 372/2/6 376/2/6
f 375/1/6 371/1/6 376/1/6
f 372/1/6 373/1/6 377/1/6
f 376/2/6 372/2/6 377/2/6
f 377/1/6 373/1/6 378/1/6
f 379/3/6 380/3/6 387/3/6
f 387/3/6 380/3/6 388/3/6
f 385/3/6 386/3/6 389/3/6
f 389/3/6 386/3/6 390/3/6
f 379/3/6 387/3/6 391/3/6
f 387/4/6 388/4/6 391/4/6
f 388/3/6 380/3/6 392/3/6
f 391/4/6 388/4/6 392/4/6
f 389/4/6 390/4/6 393/4/6
f 385/3/6 389/3/6 393/3/6
f 390/3/6 386/3/6 394/3/6
f 393/4/6 390/4/6 394/4/6
f 381/3/6 382/3/6 395/3/6
f 395/3/6 382/3/6 396/3/6
f 381/3/6 395/3/6 397/3/6
f 395/4/6 396/4/6 397/4/6
f 396/3/6 382/3/6 398/3/6
f 397/4/6 396/4/6 398/4/6
f 379/3/6 391/3/6 399/3/6
f 391/3/6 392/3/6 399/3/6
f 392/3/6 380/3/6 400/3/6
f 399/3/6 392/3/6 400/3/6
f 397/3/6 398/3/6 401/3/6
f 381/3/6 397/3/6 401/3/6
f 398/3/6 382/3/6 402/3/6
f 401/3/6 398/3/6 402/3/6
f 383/3/6 384/3/6 403/3/6
f 403/3/6 384/3/6 404/3/6
f 385/3/6 393/3/6 405/3/6
f 393/3/6 394/3/6 405/3/6
f 394/3/6 386/3/6 406/3/6
f 405/3/6 394/3/6 406/3/6
f 407/3/6 408/3/6 415/3/6
f 415/3/6 408/3/6 416/3/6
f 407/3/6 415/3/6 417/3/6
f 415/4/6 416/4/6 417/4/6
f 416/3/6 408/3/6 418/3/6
f 417/4/6 416/4/6 418/4/6
f 417/3/6 418/3/6 419/3/6
f 418/3/6 408/3/6 419/3/6
f 419/3/6 408/3/6 420/3/6
f 411/3/6 412/3/6 421/3/6
f 421/3/6 412/3/6 422/3/6
f 417/3/6 419/3/6 423/3/6
f 419/4/6 420/4/6 423/4/6
f 420/3/6 408/3/6 424/3/6
f 423/4/6 420/4/6 424/4/6
f 421/4/6 422/4/6 425/4/6
f 411/3/6 421/3/6 425/3/6
f 422/3/6 412/3/6 426/3/6
f 425/4/6 422/4/6 426/4/6
f 409/3/6 410/3/6 427/3/6
f 427/3/6 410/3/6 428/3/6
f 409/3/6 427/3/6 429/3/6
f 427/4/6 428/4/6 429/4/6
f 428/3/6 410/3/6 430/3/6
f 429/4/6 428/4/6 430/4/6
f 417/3/6 423/3/6 431/3/6
f 407/3/6 417/3/6 431/3/6
f 423/3/6 424/3/6 431/3/6
f 424/3/6 408/3/6 432/3/6
f 431/3/6 424/3/6 432/3/6
f 429/3/6 430/3/6 433/3/6
f 409/3/6 429/3/6 433/3/6
f 430/3/6 410/3/6 434/3/6
f 433/3/6 430/3/6 434/3/6
f 411/3/6 425/3/6 435/3/6
f 425/3/6 426/3/6 435/3/6
f 426/3/6 412/3/6 436/3/6
f 435/3/6 426/3/6 436/3/6
f 413/3/6 414/3/6 437/3/6
f 437/3/6 414/3/6 438/3/6
f 441/3/6 442/3/6 447/3/6
f 447/3/6 442/3/6 448/3/6
f 439/3/6 440/3/6 449/3/6
f 449/3/6 440/3/6 450/3/6
f 441/3/6 447/3/6 451/3/6
f 447/4/6 448/4/6 451/4/6
f 448/3/6 442/3/6 452/3/6
f 451/4/6 448/4/6 452/4/6
f 445/3/6 446/3/6 453/3/6
f 453/3/6 446/3/6 454/3/6
f 449/4/6 450/4/6 455/4/6
f 439/3/6 449/3/6 455/3/6
f 450/3/6 440/3/6 456/3/6
f 455/4/6 450/4/6 456/4/6
f 453/4/6 454/4/6 457/4/6
f 445/3/6 453/3/6 457/3/6
f 454/3/6 446/3/6 458/3/6
f 457/4/6 454/4/6 458/4/6
f 439/3/6 455/3/6 459/3/6
f 455/3/6 456/3/6 459/3/6
f 456/3/6 440/3/6 460/3/6
f 459/3/6 456/3/6 460/3/6
f 441/3/6 451/3/6 461/3/6
f 451/3/6 452/3/6 461/3/6
f 452/3/6 442/3/6 462/3/6
f 461/3/6 452/3/6 462/3/6
f 443/3/6 444/3/6 463/3/6
f 463/3/6 444/3/6 464/3/6
f 445/3/6 457/3/6 465/3/6
f 457/3/6 458/3/6 465/3/6
f 458/3/6 446/3/6 466/3/6
f 465/3/6 458/3/6 466/3/6
f 471/3/6 472/3/6 477/3/6
f 472/4/6 473/4/6 477/4/6
f 473/3/6 474/3/6 478/3/6
f 477/4/6 473/4/6 478/4/6
f 477/3/6 478/3/6 479/3/6
f 478/3/6 474/3/6 479/3/6
f 479/3/6 474/3/6 480/3/6
f 475/3/6 476/3/6 481/3/6
f 481/3/6 476/3/6 482/3/6
f 477/3/6 479/3/6 483/3/6
f 479/4/6 480/4/6 483/4/6
f 480/3/6 474/3/6 484/3/6
f 483/4/6 480/4/6 484/4/6
f 481/4/6 482/4/6 485/4/6
f 475/3/6 481/3/6 485/3/6
f 482/3/6 476/3/6 486/3/6
f 485/4/6 482/4/6 486/4/6
f 467/3/6 468/3/6 487/3/6
f 487/3/6 468/3/6 488/3/6
f 469/3/6 470/3/6 489/3/6
f 489/3/6 470/3/6 490/3/6
f 477/3/6 483/3/6 491/3/6
f 471/3/6 477/3/6 491/3/6
f 483/3/6 484/3/6 491/3/6
f 484/3/6 474/3/6 492/3/6
f 491/3/6 484/3/6 492/3/6
f 475/3/6 485/3/6 493/3/6
f 485/3/6 486/3/6 493/3/6
f 486/3/6 476/3/6 494/3/6
f 493/3/6 486/3/6 494/3/6
