# MagicaVoxel @ Ephtracy

# group
g STAGE2-21

# material
mtllib STAGE2-21.mtl
usemtl palette

# normals
vn -1 0 0
vn 1 0 0
vn 0 0 1
vn 0 0 -1
vn 0 -1 0
vn 0 1 0

# texcoords
vt 0.931641 0.5
vt 0.970703 0.5
vt 0.974609 0.5

# verts
v -24.5 0 4
v -24.5 0 3
v -24.5 0 -5
v -24.5 8 3
v -24.5 8 -5
v -24.5 9 4
v -24.5 9 -5
v -23.5 0 5
v -23.5 0 4
v -23.5 9 4
v -23.5 9 -5
v -23.5 10 5
v -23.5 10 -5
v -13.5 5 5
v -13.5 5 4
v -13.5 6 5
v -13.5 6 4
v -12.5 7 5
v -12.5 7 4
v -12.5 9 5
v -12.5 9 4
v -6.5 5 5
v -6.5 5 4
v -6.5 6 5
v -6.5 6 4
v 2.5 0 5
v 2.5 0 4
v 2.5 9 4
v 2.5 9 -5
v 2.5 10 5
v 2.5 10 -5
v -14.5 5 5
v -14.5 5 4
v -14.5 6 5
v -14.5 6 4
v -14.5 7 5
v -14.5 7 4
v -14.5 9 5
v -14.5 9 4
v -7.5 5 5
v -7.5 5 4
v -7.5 6 5
v -7.5 6 4
v 1.5 0 5
v 1.5 0 4
v 1.5 9 4
v 1.5 9 -5
v 1.5 10 5
v 1.5 10 -5
v 24.5 0 5
v 24.5 0 4
v 24.5 0 -5
v 24.5 9 4
v 24.5 9 -5
v 24.5 10 5
v 24.5 10 -5
v -23.5 0 5
v -23.5 10 5
v -20.5 3 5
v -20.5 5 5
v -18.5 3 5
v -18.5 5 5
v -14.5 5 5
v -14.5 6 5
v -14.5 7 5
v -14.5 9 5
v -13.5 5 5
v -13.5 6 5
v -12.5 7 5
v -12.5 9 5
v -7.5 5 5
v -7.5 6 5
v -6.5 5 5
v -6.5 6 5
v 1.5 0 5
v 1.5 10 5
v 2.5 0 5
v 2.5 10 5
v 10.5 3 5
v 10.5 5 5
v 13.5 3 5
v 13.5 5 5
v 24.5 0 5
v 24.5 10 5
v -24.5 0 4
v -24.5 9 4
v -23.5 0 4
v -23.5 9 4
v -14.5 5 4
v -14.5 6 4
v -14.5 7 4
v -14.5 9 4
v -13.5 5 4
v -13.5 6 4
v -12.5 7 4
v -12.5 9 4
v -7.5 5 4
v -7.5 6 4
v -6.5 5 4
v -6.5 6 4
v 1.5 0 4
v 1.5 9 4
v 2.5 0 4
v 2.5 9 4
v -24.5 0 -5
v -24.5 8 -5
v -24.5 9 -5
v -23.5 8 -5
v -23.5 9 -5
v -23.5 10 -5
v 1.5 8 -5
v 1.5 9 -5
v 1.5 10 -5
v 2.5 8 -5
v 2.5 9 -5
v 2.5 10 -5
v 24.5 0 -5
v 24.5 9 -5
v 24.5 10 -5
v -23.5 0 5
v 1.5 0 5
v 2.5 0 5
v 24.5 0 5
v -24.5 0 4
v -23.5 0 4
v 1.5 0 4
v 2.5 0 4
v 24.5 0 4
v -24.5 0 3
v -23.5 0 3
v 1.5 0 3
v 2.5 0 3
v -24.5 0 -5
v 24.5 0 -5
v -14.5 6 5
v -13.5 6 5
v -7.5 6 5
v -6.5 6 5
v -14.5 6 4
v -13.5 6 4
v -7.5 6 4
v -6.5 6 4
v -14.5 9 5
v -12.5 9 5
v -14.5 9 4
v -12.5 9 4
v -14.5 5 5
v -13.5 5 5
v -7.5 5 5
v -6.5 5 5
v -14.5 5 4
v -13.5 5 4
v -7.5 5 4
v -6.5 5 4
v -14.5 7 5
v -12.5 7 5
v -14.5 7 4
v -12.5 7 4
v -24.5 9 4
v -23.5 9 4
v 1.5 9 4
v 2.5 9 4
v -24.5 9 -5
v -23.5 9 -5
v 1.5 9 -5
v 2.5 9 -5
v -23.5 10 5
v 1.5 10 5
v 2.5 10 5
v 24.5 10 5
v -23.5 10 -5
v 1.5 10 -5
v 2.5 10 -5
v 24.5 10 -5

# faces
f 4/1/1 2/1/1 1/1/1
f 4/2/1 3/2/1 2/2/1
f 5/2/1 3/2/1 4/2/1
f 6/1/1 4/1/1 1/1/1
f 6/1/1 5/1/1 4/1/1
f 7/1/1 5/1/1 6/1/1
f 10/3/1 9/3/1 8/3/1
f 12/3/1 10/3/1 8/3/1
f 12/3/1 11/3/1 10/3/1
f 13/3/1 11/3/1 12/3/1
f 16/3/1 15/3/1 14/3/1
f 17/3/1 15/3/1 16/3/1
f 20/3/1 19/3/1 18/3/1
f 21/3/1 19/3/1 20/3/1
f 24/3/1 23/3/1 22/3/1
f 25/3/1 23/3/1 24/3/1
f 28/3/1 27/3/1 26/3/1
f 30/3/1 28/3/1 26/3/1
f 30/3/1 29/3/1 28/3/1
f 31/3/1 29/3/1 30/3/1
f 32/3/2 33/3/2 34/3/2
f 34/3/2 33/3/2 35/3/2
f 36/3/2 37/3/2 38/3/2
f 38/3/2 37/3/2 39/3/2
f 40/3/2 41/3/2 42/3/2
f 42/3/2 41/3/2 43/3/2
f 44/3/2 45/3/2 46/3/2
f 44/3/2 46/3/2 48/3/2
f 46/3/2 47/3/2 48/3/2
f 48/3/2 47/3/2 49/3/2
f 50/3/2 51/3/2 53/3/2
f 51/2/2 52/2/2 53/2/2
f 53/2/2 52/2/2 54/2/2
f 50/3/2 53/3/2 55/3/2
f 53/3/2 54/3/2 55/3/2
f 55/3/2 54/3/2 56/3/2
f 59/3/3 58/3/3 57/3/3
f 60/3/3 58/3/3 59/3/3
f 61/3/3 59/3/3 57/3/3
f 61/1/3 60/1/3 59/1/3
f 62/3/3 58/3/3 60/3/3
f 62/1/3 60/1/3 61/1/3
f 63/3/3 62/3/3 61/3/3
f 63/3/3 58/3/3 62/3/3
f 64/3/3 58/3/3 63/3/3
f 65/3/3 58/3/3 64/3/3
f 66/3/3 58/3/3 65/3/3
f 67/3/3 63/3/3 61/3/3
f 68/3/3 65/3/3 64/3/3
f 69/3/3 65/3/3 68/3/3
f 69/3/3 68/3/3 67/3/3
f 70/3/3 58/3/3 66/3/3
f 71/3/3 69/3/3 67/3/3
f 71/3/3 70/3/3 69/3/3
f 71/3/3 67/3/3 61/3/3
f 72/3/3 70/3/3 71/3/3
f 73/3/3 71/3/3 61/3/3
f 74/3/3 70/3/3 72/3/3
f 75/3/3 61/3/3 57/3/3
f 75/3/3 74/3/3 73/3/3
f 75/3/3 73/3/3 61/3/3
f 76/3/3 70/3/3 74/3/3
f 76/3/3 74/3/3 75/3/3
f 76/3/3 58/3/3 70/3/3
f 79/3/3 78/3/3 77/3/3
f 80/3/3 78/3/3 79/3/3
f 81/3/3 79/3/3 77/3/3
f 81/1/3 80/1/3 79/1/3
f 82/3/3 78/3/3 80/3/3
f 82/1/3 80/1/3 81/1/3
f 83/3/3 81/3/3 77/3/3
f 83/3/3 82/3/3 81/3/3
f 84/3/3 78/3/3 82/3/3
f 84/3/3 82/3/3 83/3/3
f 87/1/3 86/1/3 85/1/3
f 88/1/3 86/1/3 87/1/3
f 93/2/3 90/2/3 89/2/3
f 94/2/3 90/2/3 93/2/3
f 95/2/3 92/2/3 91/2/3
f 96/2/3 92/2/3 95/2/3
f 99/2/3 98/2/3 97/2/3
f 100/2/3 98/2/3 99/2/3
f 103/1/3 102/1/3 101/1/3
f 104/1/3 102/1/3 103/1/3
f 105/2/4 106/2/4 108/2/4
f 106/1/4 107/1/4 108/1/4
f 108/1/4 107/1/4 109/1/4
f 105/2/4 108/2/4 111/2/4
f 108/2/4 109/2/4 111/2/4
f 109/3/4 110/3/4 112/3/4
f 111/2/4 109/2/4 112/2/4
f 112/3/4 110/3/4 113/3/4
f 105/2/4 111/2/4 114/2/4
f 111/1/4 112/1/4 114/1/4
f 114/1/4 112/1/4 115/1/4
f 105/2/4 114/2/4 117/2/4
f 114/2/4 115/2/4 117/2/4
f 115/3/4 116/3/4 118/3/4
f 117/2/4 115/2/4 118/2/4
f 118/3/4 116/3/4 119/3/4
f 125/3/5 121/3/5 120/3/5
f 126/3/5 121/3/5 125/3/5
f 127/3/5 123/3/5 122/3/5
f 128/3/5 123/3/5 127/3/5
f 129/1/5 125/1/5 124/1/5
f 130/2/5 126/2/5 125/2/5
f 130/1/5 125/1/5 129/1/5
f 131/1/5 127/1/5 126/1/5
f 131/2/5 126/2/5 130/2/5
f 132/2/5 128/2/5 127/2/5
f 132/1/5 127/1/5 131/1/5
f 133/2/5 130/2/5 129/2/5
f 133/2/5 131/2/5 130/2/5
f 133/2/5 132/2/5 131/2/5
f 134/2/5 128/2/5 132/2/5
f 134/2/5 132/2/5 133/2/5
f 139/3/5 136/3/5 135/3/5
f 140/3/5 136/3/5 139/3/5
f 141/3/5 138/3/5 137/3/5
f 142/3/5 138/3/5 141/3/5
f 145/3/5 144/3/5 143/3/5
f 146/3/5 144/3/5 145/3/5
f 147/3/6 148/3/6 151/3/6
f 151/3/6 148/3/6 152/3/6
f 149/3/6 150/3/6 153/3/6
f 153/3/6 150/3/6 154/3/6
f 155/3/6 156/3/6 157/3/6
f 157/3/6 156/3/6 158/3/6
f 159/1/6 160/1/6 163/1/6
f 163/1/6 160/1/6 164/1/6
f 161/1/6 162/1/6 165/1/6
f 165/1/6 162/1/6 166/1/6
f 167/3/6 168/3/6 171/3/6
f 171/3/6 168/3/6 172/3/6
f 169/3/6 170/3/6 173/3/6
f 173/3/6 170/3/6 174/3/6
