# MagicaVoxel @ Ephtracy

# group
g STAGE2-21-1

# material
mtllib STAGE2-21-1.mtl
usemtl palette

# normals
vn -1 0 0
vn 1 0 0
vn 0 0 1
vn 0 0 -1
vn 0 -1 0
vn 0 1 0

# texcoords
vt 0.919922 0.5
vt 0.931641 0.5
vt 0.970703 0.5
vt 0.974609 0.5
vt 0.982422 0.5

# verts
v -24.5 0 4
v -24.5 0 3
v -24.5 0 -5
v -24.5 8 3
v -24.5 8 -5
v -24.5 9 4
v -24.5 9 -5
v -23.5 0 5
v -23.5 0 4
v -23.5 9 4
v -23.5 9 -5
v -23.5 10 5
v -23.5 10 -5
v -13.5 5 5
v -13.5 5 4
v -13.5 6 5
v -13.5 6 4
v -12.5 7 5
v -12.5 7 4
v -12.5 9 5
v -12.5 9 4
v -6.5 5 5
v -6.5 5 4
v -6.5 6 5
v -6.5 6 4
v 2.5 0 5
v 2.5 0 4
v 2.5 9 4
v 2.5 9 -5
v 2.5 10 5
v 2.5 10 -5
v 8.5 0 5
v 8.5 0 4
v 8.5 4 5
v 8.5 4 4
v 12.5 0 5
v 12.5 0 4
v 12.5 4 5
v 12.5 4 4
v 16.5 0 5
v 16.5 0 4
v 16.5 4 5
v 16.5 4 4
v 20.5 0 5
v 20.5 0 4
v 20.5 0 2
v 20.5 4 5
v 20.5 4 4
v 20.5 4 2
v -14.5 5 5
v -14.5 5 4
v -14.5 6 5
v -14.5 6 4
v -14.5 7 5
v -14.5 7 4
v -14.5 9 5
v -14.5 9 4
v -7.5 5 5
v -7.5 5 4
v -7.5 6 5
v -7.5 6 4
v 1.5 0 5
v 1.5 0 4
v 1.5 9 4
v 1.5 9 -5
v 1.5 10 5
v 1.5 10 -5
v 6.5 0 5
v 6.5 0 4
v 6.5 0 2
v 6.5 4 5
v 6.5 4 4
v 6.5 4 2
v 9.5 0 5
v 9.5 0 4
v 9.5 4 5
v 9.5 4 4
v 13.5 0 5
v 13.5 0 4
v 13.5 4 5
v 13.5 4 4
v 17.5 0 5
v 17.5 0 4
v 17.5 4 5
v 17.5 4 4
v 24.5 0 5
v 24.5 0 4
v 24.5 0 -5
v 24.5 9 4
v 24.5 9 -5
v 24.5 10 5
v 24.5 10 -5
v -23.5 0 5
v -23.5 10 5
v -20.5 3 5
v -20.5 5 5
v -18.5 3 5
v -18.5 5 5
v -14.5 5 5
v -14.5 6 5
v -14.5 7 5
v -14.5 9 5
v -13.5 5 5
v -13.5 6 5
v -12.5 7 5
v -12.5 9 5
v -7.5 5 5
v -7.5 6 5
v -6.5 5 5
v -6.5 6 5
v 1.5 0 5
v 1.5 10 5
v 2.5 0 5
v 2.5 10 5
v 6.5 0 5
v 6.5 4 5
v 8.5 0 5
v 8.5 4 5
v 9.5 0 5
v 9.5 4 5
v 10.5 4 5
v 10.5 5 5
v 12.5 0 5
v 12.5 4 5
v 13.5 0 5
v 13.5 4 5
v 13.5 5 5
v 16.5 0 5
v 16.5 4 5
v 17.5 0 5
v 17.5 4 5
v 20.5 0 5
v 20.5 4 5
v 24.5 0 5
v 24.5 10 5
v -24.5 0 4
v -24.5 9 4
v -23.5 0 4
v -23.5 9 4
v -14.5 5 4
v -14.5 6 4
v -14.5 7 4
v -14.5 9 4
v -13.5 5 4
v -13.5 6 4
v -12.5 7 4
v -12.5 9 4
v -7.5 5 4
v -7.5 6 4
v -6.5 5 4
v -6.5 6 4
v 1.5 0 4
v 1.5 9 4
v 2.5 0 4
v 2.5 9 4
v 6.5 0 2
v 6.5 4 2
v 20.5 0 2
v 20.5 4 2
v 8.5 0 4
v 8.5 4 4
v 9.5 0 4
v 9.5 4 4
v 12.5 0 4
v 12.5 4 4
v 13.5 0 4
v 13.5 4 4
v 16.5 0 4
v 16.5 4 4
v 17.5 0 4
v 17.5 4 4
v -24.5 0 -5
v -24.5 8 -5
v -24.5 9 -5
v -23.5 8 -5
v -23.5 9 -5
v -23.5 10 -5
v 1.5 8 -5
v 1.5 9 -5
v 1.5 10 -5
v 2.5 8 -5
v 2.5 9 -5
v 2.5 10 -5
v 24.5 0 -5
v 24.5 9 -5
v 24.5 10 -5
v -23.5 0 5
v 1.5 0 5
v 2.5 0 5
v 6.5 0 5
v 8.5 0 5
v 9.5 0 5
v 12.5 0 5
v 13.5 0 5
v 16.5 0 5
v 17.5 0 5
v 20.5 0 5
v 24.5 0 5
v -24.5 0 4
v -23.5 0 4
v 1.5 0 4
v 2.5 0 4
v 5.5 0 4
v 6.5 0 4
v 8.5 0 4
v 9.5 0 4
v 12.5 0 4
v 13.5 0 4
v 16.5 0 4
v 17.5 0 4
v 20.5 0 4
v 21.5 0 4
v 24.5 0 4
v -24.5 0 3
v -23.5 0 3
v 1.5 0 3
v 2.5 0 3
v 5.5 0 2
v 6.5 0 2
v 20.5 0 2
v 21.5 0 2
v 6.5 0 1
v 20.5 0 1
v -24.5 0 -5
v 24.5 0 -5
v 6.5 4 5
v 8.5 4 5
v 9.5 4 5
v 10.5 4 5
v 12.5 4 5
v 13.5 4 5
v 16.5 4 5
v 17.5 4 5
v 20.5 4 5
v 6.5 4 4
v 8.5 4 4
v 9.5 4 4
v 10.5 4 4
v 12.5 4 4
v 13.5 4 4
v 16.5 4 4
v 17.5 4 4
v 20.5 4 4
v 6.5 4 2
v 20.5 4 2
v -14.5 6 5
v -13.5 6 5
v -7.5 6 5
v -6.5 6 5
v -14.5 6 4
v -13.5 6 4
v -7.5 6 4
v -6.5 6 4
v -14.5 9 5
v -12.5 9 5
v -14.5 9 4
v -12.5 9 4
v -14.5 5 5
v -13.5 5 5
v -7.5 5 5
v -6.5 5 5
v -14.5 5 4
v -13.5 5 4
v -7.5 5 4
v -6.5 5 4
v -14.5 7 5
v -12.5 7 5
v -14.5 7 4
v -12.5 7 4
v -24.5 9 4
v -23.5 9 4
v 1.5 9 4
v 2.5 9 4
v -24.5 9 -5
v -23.5 9 -5
v 1.5 9 -5
v 2.5 9 -5
v -23.5 10 5
v 1.5 10 5
v 2.5 10 5
v 24.5 10 5
v -23.5 10 -5
v 1.5 10 -5
v 2.5 10 -5
v 24.5 10 -5

# faces
f 4/2/1 2/2/1 1/2/1
f 4/3/1 3/3/1 2/3/1
f 5/3/1 3/3/1 4/3/1
f 6/2/1 4/2/1 1/2/1
f 6/2/1 5/2/1 4/2/1
f 7/2/1 5/2/1 6/2/1
f 10/4/1 9/4/1 8/4/1
f 12/4/1 10/4/1 8/4/1
f 12/4/1 11/4/1 10/4/1
f 13/4/1 11/4/1 12/4/1
f 16/4/1 15/4/1 14/4/1
f 17/4/1 15/4/1 16/4/1
f 20/4/1 19/4/1 18/4/1
f 21/4/1 19/4/1 20/4/1
f 24/4/1 23/4/1 22/4/1
f 25/4/1 23/4/1 24/4/1
f 28/4/1 27/4/1 26/4/1
f 30/4/1 28/4/1 26/4/1
f 30/4/1 29/4/1 28/4/1
f 31/4/1 29/4/1 30/4/1
f 34/1/1 33/1/1 32/1/1
f 35/1/1 33/1/1 34/1/1
f 38/1/1 37/1/1 36/1/1
f 39/1/1 37/1/1 38/1/1
f 42/1/1 41/1/1 40/1/1
f 43/1/1 41/1/1 42/1/1
f 47/4/1 45/4/1 44/4/1
f 48/5/1 46/5/1 45/5/1
f 48/4/1 45/4/1 47/4/1
f 49/5/1 46/5/1 48/5/1
f 50/4/2 51/4/2 52/4/2
f 52/4/2 51/4/2 53/4/2
f 54/4/2 55/4/2 56/4/2
f 56/4/2 55/4/2 57/4/2
f 58/4/2 59/4/2 60/4/2
f 60/4/2 59/4/2 61/4/2
f 62/4/2 63/4/2 64/4/2
f 62/4/2 64/4/2 66/4/2
f 64/4/2 65/4/2 66/4/2
f 66/4/2 65/4/2 67/4/2
f 68/4/2 69/4/2 71/4/2
f 69/5/2 70/5/2 72/5/2
f 71/4/2 69/4/2 72/4/2
f 72/5/2 70/5/2 73/5/2
f 74/1/2 75/1/2 76/1/2
f 76/1/2 75/1/2 77/1/2
f 78/1/2 79/1/2 80/1/2
f 80/1/2 79/1/2 81/1/2
f 82/1/2 83/1/2 84/1/2
f 84/1/2 83/1/2 85/1/2
f 86/4/2 87/4/2 89/4/2
f 87/3/2 88/3/2 89/3/2
f 89/3/2 88/3/2 90/3/2
f 86/4/2 89/4/2 91/4/2
f 89/4/2 90/4/2 91/4/2
f 91/4/2 90/4/2 92/4/2
f 95/4/3 94/4/3 93/4/3
f 96/4/3 94/4/3 95/4/3
f 97/4/3 95/4/3 93/4/3
f 97/2/3 96/2/3 95/2/3
f 98/4/3 94/4/3 96/4/3
f 98/2/3 96/2/3 97/2/3
f 99/4/3 98/4/3 97/4/3
f 99/4/3 94/4/3 98/4/3
f 100/4/3 94/4/3 99/4/3
f 101/4/3 94/4/3 100/4/3
f 102/4/3 94/4/3 101/4/3
f 103/4/3 99/4/3 97/4/3
f 104/4/3 101/4/3 100/4/3
f 105/4/3 101/4/3 104/4/3
f 105/4/3 104/4/3 103/4/3
f 106/4/3 94/4/3 102/4/3
f 107/4/3 105/4/3 103/4/3
f 107/4/3 106/4/3 105/4/3
f 107/4/3 103/4/3 97/4/3
f 108/4/3 106/4/3 107/4/3
f 109/4/3 107/4/3 97/4/3
f 110/4/3 106/4/3 108/4/3
f 111/4/3 97/4/3 93/4/3
f 111/4/3 110/4/3 109/4/3
f 111/4/3 109/4/3 97/4/3
f 112/4/3 106/4/3 110/4/3
f 112/4/3 110/4/3 111/4/3
f 112/4/3 94/4/3 106/4/3
f 115/4/3 114/4/3 113/4/3
f 116/4/3 114/4/3 115/4/3
f 118/4/3 114/4/3 116/4/3
f 119/1/3 118/1/3 117/1/3
f 120/4/3 114/4/3 118/4/3
f 120/1/3 118/1/3 119/1/3
f 121/4/3 114/4/3 120/4/3
f 122/4/3 114/4/3 121/4/3
f 124/2/3 122/2/3 121/2/3
f 125/1/3 124/1/3 123/1/3
f 126/2/3 122/2/3 124/2/3
f 126/1/3 124/1/3 125/1/3
f 127/4/3 114/4/3 122/4/3
f 127/2/3 122/2/3 126/2/3
f 129/4/3 127/4/3 126/4/3
f 130/1/3 129/1/3 128/1/3
f 131/4/3 127/4/3 129/4/3
f 131/1/3 129/1/3 130/1/3
f 133/4/3 127/4/3 131/4/3
f 134/4/3 133/4/3 132/4/3
f 135/4/3 114/4/3 127/4/3
f 135/4/3 133/4/3 134/4/3
f 135/4/3 127/4/3 133/4/3
f 138/2/3 137/2/3 136/2/3
f 139/2/3 137/2/3 138/2/3
f 144/3/3 141/3/3 140/3/3
f 145/3/3 141/3/3 144/3/3
f 146/3/3 143/3/3 142/3/3
f 147/3/3 143/3/3 146/3/3
f 150/3/3 149/3/3 148/3/3
f 151/3/3 149/3/3 150/3/3
f 154/2/3 153/2/3 152/2/3
f 155/2/3 153/2/3 154/2/3
f 158/5/3 157/5/3 156/5/3
f 159/5/3 157/5/3 158/5/3
f 160/1/4 161/1/4 162/1/4
f 162/1/4 161/1/4 163/1/4
f 164/1/4 165/1/4 166/1/4
f 166/1/4 165/1/4 167/1/4
f 168/1/4 169/1/4 170/1/4
f 170/1/4 169/1/4 171/1/4
f 172/3/4 173/3/4 175/3/4
f 173/2/4 174/2/4 175/2/4
f 175/2/4 174/2/4 176/2/4
f 172/3/4 175/3/4 178/3/4
f 175/3/4 176/3/4 178/3/4
f 176/4/4 177/4/4 179/4/4
f 178/3/4 176/3/4 179/3/4
f 179/4/4 177/4/4 180/4/4
f 172/3/4 178/3/4 181/3/4
f 178/2/4 179/2/4 181/2/4
f 181/2/4 179/2/4 182/2/4
f 172/3/4 181/3/4 184/3/4
f 181/3/4 182/3/4 184/3/4
f 182/4/4 183/4/4 185/4/4
f 184/3/4 182/3/4 185/3/4
f 185/4/4 183/4/4 186/4/4
f 200/4/5 188/4/5 187/4/5
f 201/4/5 188/4/5 200/4/5
f 202/4/5 190/4/5 189/4/5
f 203/4/5 190/4/5 202/4/5
f 204/4/5 190/4/5 203/4/5
f 205/1/5 192/1/5 191/1/5
f 206/1/5 192/1/5 205/1/5
f 207/1/5 194/1/5 193/1/5
f 208/1/5 194/1/5 207/1/5
f 209/1/5 196/1/5 195/1/5
f 210/1/5 196/1/5 209/1/5
f 211/4/5 198/4/5 197/4/5
f 212/4/5 198/4/5 211/4/5
f 213/4/5 198/4/5 212/4/5
f 214/2/5 200/2/5 199/2/5
f 215/3/5 201/3/5 200/3/5
f 215/2/5 200/2/5 214/2/5
f 216/2/5 202/2/5 201/2/5
f 216/3/5 201/3/5 215/3/5
f 217/3/5 203/3/5 202/3/5
f 217/2/5 202/2/5 216/2/5
f 218/5/5 204/5/5 203/5/5
f 218/3/5 203/3/5 217/3/5
f 218/3/5 217/3/5 216/3/5
f 218/3/5 215/3/5 214/3/5
f 218/3/5 216/3/5 215/3/5
f 219/5/5 204/5/5 218/5/5
f 220/5/5 212/5/5 211/5/5
f 221/3/5 213/3/5 212/3/5
f 221/5/5 212/5/5 220/5/5
f 222/5/5 220/5/5 219/5/5
f 222/3/5 219/3/5 218/3/5
f 223/3/5 221/3/5 220/3/5
f 223/5/5 220/5/5 222/5/5
f 224/3/5 222/3/5 218/3/5
f 224/3/5 218/3/5 214/3/5
f 224/3/5 223/3/5 222/3/5
f 225/3/5 213/3/5 221/3/5
f 225/3/5 223/3/5 224/3/5
f 225/3/5 221/3/5 223/3/5
f 235/4/5 227/4/5 226/4/5
f 236/4/5 227/4/5 235/4/5
f 237/4/5 229/4/5 228/4/5
f 238/2/5 230/2/5 229/2/5
f 238/4/5 229/4/5 237/4/5
f 239/2/5 230/2/5 238/2/5
f 240/4/5 232/4/5 231/4/5
f 241/4/5 232/4/5 240/4/5
f 242/4/5 234/4/5 233/4/5
f 243/4/5 234/4/5 242/4/5
f 244/5/5 241/5/5 240/5/5
f 244/5/5 236/5/5 235/5/5
f 244/5/5 243/5/5 242/5/5
f 244/5/5 242/5/5 241/5/5
f 244/5/5 237/5/5 236/5/5
f 244/5/5 240/5/5 239/5/5
f 244/5/5 239/5/5 238/5/5
f 244/5/5 238/5/5 237/5/5
f 245/5/5 243/5/5 244/5/5
f 250/4/5 247/4/5 246/4/5
f 251/4/5 247/4/5 250/4/5
f 252/4/5 249/4/5 248/4/5
f 253/4/5 249/4/5 252/4/5
f 256/4/5 255/4/5 254/4/5
f 257/4/5 255/4/5 256/4/5
f 258/4/6 259/4/6 262/4/6
f 262/4/6 259/4/6 263/4/6
f 260/4/6 261/4/6 264/4/6
f 264/4/6 261/4/6 265/4/6
f 266/4/6 267/4/6 268/4/6
f 268/4/6 267/4/6 269/4/6
f 270/2/6 271/2/6 274/2/6
f 274/2/6 271/2/6 275/2/6
f 272/2/6 273/2/6 276/2/6
f 276/2/6 273/2/6 277/2/6
f 278/4/6 279/4/6 282/4/6
f 282/4/6 279/4/6 283/4/6
f 280/4/6 281/4/6 284/4/6
f 284/4/6 281/4/6 285/4/6
